<svg
  xmlns="http://www.w3.org/2000/svg"
  version="1.1"
  xmlns:xlink="http://www.w3.org/1999/xlink"
  xmlns:svgjs="http://svgjs.com/svgjs"
  width="1440"
  height="560"
  preserveAspectRatio="none"
  viewBox="0 0 1440 560"
>
  <g mask='url("#SvgjsMask1009")' fill="none">
    <path
      d="M 0,106 C 57.6,129.6 172.8,229.8 288,224 C 403.2,218.2 460.8,73.8 576,77 C 691.2,80.2 748.8,239.8 864,240 C 979.2,240.2 1036.8,79.8 1152,78 C 1267.2,76.2 1382.4,200.4 1440,231L1440 560L0 560z"
      fill="rgba(0, 0, 0, 0.2)"
    ></path>
    <path
      d="M 0,475 C 96,443.8 288,304.6 480,319 C 672,333.4 768,538.8 960,547 C 1152,555.2 1344,397.4 1440,360L1440 560L0 560z"
      fill="rgba(0, 0, 0, 0.15)"
    ></path>
  </g>
  <defs>
    <mask id="SvgjsMask1009">
      <rect width="1440" height="560" fill="#ffffff"></rect>
    </mask>
  </defs>
</svg>
